<?xml version="1.0" encoding="UTF-8"?>
<svg xmlns="http://www.w3.org/2000/svg" xmlns:xlink="http://www.w3.org/1999/xlink" width="259pt" height="259pt" viewBox="0 0 259 259" version="1.1">
<g id="surface1">
<path style=" stroke:none;fill-rule:nonzero;fill:rgb(100%,100%,100%);fill-opacity:1;" d="M 253.816406 129.46875 C 253.816406 96.503906 240.71875 64.894531 217.410156 41.589844 C 194.105469 18.28125 162.496094 5.183594 129.53125 5.183594 C 96.570312 5.183594 64.960938 18.28125 41.652344 41.589844 C 18.347656 64.894531 5.25 96.503906 5.25 129.46875 C 5.25 162.429688 18.347656 194.039062 41.652344 217.347656 C 64.960938 240.652344 96.570312 253.75 129.53125 253.75 C 162.496094 253.75 194.105469 240.652344 217.410156 217.347656 C 240.71875 194.039062 253.816406 162.429688 253.816406 129.46875 "/>
<path style="fill:none;stroke-width:99;stroke-linecap:butt;stroke-linejoin:round;stroke:rgb(0%,0%,0%);stroke-opacity:1;stroke-miterlimit:10;" d="M 2538.164062 1295.3125 C 2538.164062 1624.960938 2407.1875 1941.054688 2174.101562 2174.101562 C 1941.054688 2407.1875 1624.960938 2538.164062 1295.3125 2538.164062 C 965.703125 2538.164062 649.609375 2407.1875 416.523438 2174.101562 C 183.476562 1941.054688 52.5 1624.960938 52.5 1295.3125 C 52.5 965.703125 183.476562 649.609375 416.523438 416.523438 C 649.609375 183.476562 965.703125 52.5 1295.3125 52.5 C 1624.960938 52.5 1941.054688 183.476562 2174.101562 416.523438 C 2407.1875 649.609375 2538.164062 965.703125 2538.164062 1295.3125 Z M 2538.164062 1295.3125 " transform="matrix(0.1,0,0,-0.1,0,259)"/>
<path style=" stroke:none;fill-rule:nonzero;fill:rgb(0%,0%,0%);fill-opacity:1;" d="M 129.53125 5.183594 C 198.078125 5.183594 253.566406 60.871094 253.566406 129.46875 C 253.566406 198.0625 198.078125 253.75 129.53125 253.75 C 95.234375 253.75 67.515625 225.828125 67.515625 191.484375 C 67.515625 157.234375 95.28125 129.46875 129.53125 129.46875 C 163.78125 129.46875 191.550781 101.703125 191.550781 67.449219 C 191.550781 34.914062 162.957031 10.164062 129.53125 10.164062 C 126.210938 10.164062 126.210938 5.183594 129.53125 5.183594 "/>
<path style="fill:none;stroke-width:99;stroke-linecap:round;stroke-linejoin:round;stroke:rgb(0%,0%,0%);stroke-opacity:1;stroke-miterlimit:10;" d="M 1134.375 2114.726562 L 1295.3125 1666.445312 L 1456.25 2114.726562 " transform="matrix(0.1,0,0,-0.1,0,259)"/>
<path style="fill:none;stroke-width:99;stroke-linecap:round;stroke-linejoin:round;stroke:rgb(0%,0%,0%);stroke-opacity:1;stroke-miterlimit:10;" d="M 1185.273438 1972.96875 L 1405.351562 1972.96875 " transform="matrix(0.1,0,0,-0.1,0,259)"/>
<path style="fill:none;stroke-width:99;stroke-linecap:round;stroke-linejoin:round;stroke:rgb(100%,100%,100%);stroke-opacity:1;stroke-miterlimit:10;" d="M 1230.195312 874.414062 C 1276.484375 874.414062 1317.148438 842.929688 1325.976562 797.773438 C 1325.976562 797.734375 1398.789062 426.132812 1398.789062 426.09375 " transform="matrix(0.1,0,0,-0.1,0,259)"/>
<path style="fill:none;stroke-width:99;stroke-linecap:round;stroke-linejoin:round;stroke:rgb(100%,100%,100%);stroke-opacity:1;stroke-miterlimit:10;" d="M 1353.75 656.015625 L 1191.875 426.09375 " transform="matrix(0.1,0,0,-0.1,0,259)"/>
</g>
</svg>
